# Blender 4.3.0
# www.blender.org
mtllib batiments 1.mtl
o Cube.024
v -1.543373 2.170660 0.007684
v -1.543373 2.170660 -2.429968
v -3.273248 2.170660 -2.429968
v -3.273248 2.170660 0.007684
v -2.408310 2.544473 0.007684
v -2.408310 2.544473 -2.429968
v -1.492021 2.156770 0.010843
v -1.492021 2.243123 0.010843
v -1.492021 2.243123 -2.502329
v -2.408310 2.652437 -2.502329
v -3.324599 2.243123 -2.502329
v -3.324599 2.243123 0.010843
v -2.408310 2.652437 0.010843
v -1.492021 2.156770 -2.502329
v -3.324599 2.156770 -2.502329
v -3.324599 2.156770 0.010843
v -2.408310 2.552777 0.010843
v -2.408310 2.552777 -2.502329
v -2.408310 -0.075788 -2.429968
v -3.273248 -0.078788 -2.429968
v -1.543373 -0.072789 0.007684
v -1.543373 -0.072788 -2.429968
v -2.408310 -0.075788 0.007684
v -3.273248 -0.078788 0.007684
vn 0.1519 -0.3514 0.9238
vn 0.2611 -0.9653 -0.0000
vn -0.2611 -0.9653 -0.0000
vn -0.3945 -0.9129 -0.1048
vn -0.1519 -0.3514 0.9238
vn 0.3945 -0.9129 -0.1048
vn 1.0000 -0.0000 -0.0000
vn -0.0000 -0.0000 -1.0000
vn -1.0000 -0.0000 -0.0000
vn -0.0000 -0.0000 1.0000
vn 0.4079 0.9130 -0.0000
vn -0.4079 0.9130 -0.0000
vt 0.926072 0.847968
vt 0.906642 0.839570
vt 0.905488 0.839258
vt 0.926072 0.848155
vt 0.945503 0.839570
vt 0.946656 0.839258
vt 0.946656 0.841198
vt 0.926072 0.850393
vt 0.905488 0.841198
vt 0.812765 0.425265
vt 0.793334 0.425197
vt 0.793334 0.484060
vt 0.812765 0.475663
vt 0.773904 0.425130
vt 0.773904 0.475663
vt 0.812765 0.425265
s 0
usemtl PALETTE.006
f 5/1/1 17/4/1 16/3/1 4/2/1
f 4/2/2 16/3/2 15/3/2 3/2/2
f 2/5/3 14/6/3 7/6/3 1/5/3
f 6/1/4 18/4/4 14/6/4 2/5/4
f 1/5/5 7/6/5 17/4/5 5/1/5
f 3/2/6 15/3/6 18/4/6 6/1/6
f 7/6/7 14/6/7 9/7/7 8/7/7
f 18/4/8 15/3/8 11/9/8 10/8/8
f 15/3/9 16/3/9 12/9/9 11/9/9
f 17/4/10 7/6/10 8/7/10 13/8/10
f 10/8/11 13/8/11 8/7/11 9/7/11
f 11/9/12 12/9/12 13/8/12 10/8/12
f 16/3/10 17/4/10 13/8/10 12/9/10
f 14/6/8 18/4/8 10/8/8 9/7/8
f 21/10/10 1/13/10 5/12/10 23/11/10
f 24/14/9 4/15/9 3/15/9 20/14/9
f 20/14/8 3/15/8 6/12/8 19/11/8
f 19/11/8 6/12/8 2/13/8 22/16/8
f 22/16/7 2/13/7 1/13/7 21/10/7
f 23/11/10 5/12/10 4/15/10 24/14/10
o Cube.025
v 0.197558 2.170660 -0.002284
v 0.197558 2.170660 -2.439936
v -1.532318 2.170660 -2.439936
v -1.532318 2.170660 -0.002284
v -0.667380 2.544473 -0.002284
v -0.667380 2.544473 -2.439936
v 0.248909 2.156770 0.000875
v 0.248909 2.243123 0.000875
v 0.248909 2.243123 -2.512298
v -0.667380 2.652437 -2.512298
v -1.583669 2.243123 -2.512298
v -1.583669 2.243123 0.000875
v -0.667380 2.652437 0.000875
v 0.248909 2.156770 -2.512298
v -1.583669 2.156770 -2.512298
v -1.583669 2.156770 0.000875
v -0.667380 2.552777 0.000875
v -0.667380 2.552777 -2.512298
v -0.667380 -0.075788 -2.439936
v -1.532318 -0.078788 -2.439936
v 0.197558 -0.072789 -0.002284
v 0.197558 -0.072788 -2.439936
v -0.667380 -0.075788 -0.002284
v -1.532318 -0.078788 -0.002284
vn 0.1519 -0.3514 0.9238
vn 0.2611 -0.9653 -0.0000
vn -0.2611 -0.9653 -0.0000
vn -0.3945 -0.9129 -0.1048
vn -0.1519 -0.3514 0.9238
vn 0.3945 -0.9129 -0.1048
vn 1.0000 -0.0000 -0.0000
vn -0.0000 -0.0000 -1.0000
vn -1.0000 -0.0000 -0.0000
vn -0.0000 -0.0000 1.0000
vn 0.4079 0.9130 -0.0000
vn -0.4079 0.9130 -0.0000
vt 0.926072 0.847968
vt 0.906642 0.839570
vt 0.905488 0.839258
vt 0.926072 0.848155
vt 0.945503 0.839570
vt 0.946656 0.839258
vt 0.946656 0.841198
vt 0.926072 0.850393
vt 0.905488 0.841198
vt 0.389798 0.675736
vt 0.370368 0.675669
vt 0.370368 0.734532
vt 0.389798 0.726134
vt 0.350937 0.675602
vt 0.350937 0.726134
vt 0.389798 0.675736
s 0
usemtl PALETTE.005
f 29/17/13 41/20/13 40/19/13 28/18/13
f 28/18/14 40/19/14 39/19/14 27/18/14
f 26/21/15 38/22/15 31/22/15 25/21/15
f 30/17/16 42/20/16 38/22/16 26/21/16
f 25/21/17 31/22/17 41/20/17 29/17/17
f 27/18/18 39/19/18 42/20/18 30/17/18
f 31/22/19 38/22/19 33/23/19 32/23/19
f 42/20/20 39/19/20 35/25/20 34/24/20
f 39/19/21 40/19/21 36/25/21 35/25/21
f 41/20/22 31/22/22 32/23/22 37/24/22
f 34/24/23 37/24/23 32/23/23 33/23/23
f 35/25/24 36/25/24 37/24/24 34/24/24
f 40/19/22 41/20/22 37/24/22 36/25/22
f 38/22/20 42/20/20 34/24/20 33/23/20
f 45/26/22 25/29/22 29/28/22 47/27/22
f 48/30/21 28/31/21 27/31/21 44/30/21
f 44/30/20 27/31/20 30/28/20 43/27/20
f 43/27/20 30/28/20 26/29/20 46/32/20
f 46/32/19 26/29/19 25/29/19 45/26/19
f 47/27/22 29/28/22 28/31/22 48/30/22
o Cube.027
v 0.595595 0.954236 -2.448841
v 0.595595 0.954236 -0.011189
v 2.930117 0.954236 -0.011189
v 2.930117 0.954236 -2.448841
v 1.762856 1.376037 -2.448841
v 1.762856 1.376037 -0.011189
v 0.526295 0.942957 -2.521203
v 0.526295 1.013085 -2.521203
v 0.526295 1.013085 -0.003654
v 1.762856 1.463715 -0.003654
v 2.999417 1.013085 -0.003654
v 2.999417 1.013085 -2.521203
v 1.762856 1.463715 -2.521203
v 0.526295 0.942957 -0.003654
v 2.999417 0.942957 -0.003654
v 2.999417 0.942957 -2.521203
v 1.762856 1.382781 -2.521203
v 1.762856 1.382781 -0.003654
v 0.595595 -0.083809 -0.011189
v 1.762856 -0.079760 -2.448841
v 2.930117 -0.075712 -2.448841
v 1.762856 -0.079761 -0.011189
v 2.930117 -0.075712 -0.011189
v 0.595595 -0.083809 -2.448841
vn -0.3345 -0.9333 -0.1309
vn -0.1606 -0.9870 -0.0000
vn 0.1606 -0.9870 -0.0000
vn 0.2089 -0.5828 0.7853
vn 0.3345 -0.9333 -0.1309
vn -0.2089 -0.5828 0.7853
vn -1.0000 -0.0000 -0.0000
vn -0.0000 -0.0000 1.0000
vn 1.0000 -0.0000 -0.0000
vn -0.0000 -0.0000 -1.0000
vn -0.3424 0.9396 -0.0000
vn 0.3424 0.9396 -0.0000
vt 0.922322 0.837816
vt 0.956554 0.825446
vt 0.958586 0.825116
vt 0.922322 0.838014
vt 0.956554 0.825446
vt 0.888090 0.825446
vt 0.888090 0.825446
vt 0.886057 0.825116
vt 0.886057 0.827172
vt 0.922322 0.840388
vt 0.958586 0.827172
vt 0.921066 0.563123
vt 0.886834 0.563004
vt 0.886834 0.593447
vt 0.921066 0.605817
vt 0.955298 0.563242
vt 0.955298 0.593447
s 0
usemtl PALETTE.002
f 53/33/25 65/36/25 64/35/25 52/34/25
f 52/34/26 64/35/26 63/35/26 51/37/26
f 50/38/27 62/40/27 55/40/27 49/39/27
f 54/33/28 66/36/28 62/40/28 50/38/28
f 49/39/29 55/40/29 65/36/29 53/33/29
f 51/37/30 63/35/30 66/36/30 54/33/30
f 55/40/31 62/40/31 57/41/31 56/41/31
f 66/36/32 63/35/32 59/43/32 58/42/32
f 63/35/33 64/35/33 60/43/33 59/43/33
f 65/36/34 55/40/34 56/41/34 61/42/34
f 58/42/35 61/42/35 56/41/35 57/41/35
f 59/43/36 60/43/36 61/42/36 58/42/36
f 64/35/34 65/36/34 61/42/34 60/43/34
f 62/40/32 66/36/32 58/42/32 57/41/32
f 70/44/32 54/47/32 50/46/32 67/45/32
f 67/45/31 50/46/31 49/46/31 72/45/31
f 68/44/34 53/47/34 52/49/34 69/48/34
f 72/45/34 49/46/34 53/47/34 68/44/34
f 69/48/33 52/49/33 51/49/33 71/48/33
f 71/48/32 51/49/32 54/47/32 70/44/32
o Cube.039
v -0.890114 0.954236 2.414081
v -0.890115 0.954236 -0.023571
v -3.224637 0.954236 -0.023571
v -3.224637 0.954236 2.414082
v -2.057375 1.376037 2.414081
v -2.057376 1.376037 -0.023571
v -0.820814 0.942957 2.486442
v -0.820814 1.013085 2.486442
v -0.820815 1.013085 -0.031106
v -2.057376 1.463715 -0.031106
v -3.293937 1.013085 -0.031105
v -3.293936 1.013085 2.486443
v -2.057375 1.463715 2.486443
v -0.820815 0.942957 -0.031106
v -3.293937 0.942957 -0.031105
v -3.293936 0.942957 2.486443
v -2.057375 1.382781 2.486443
v -2.057376 1.382781 -0.031106
v -0.890115 -0.083809 -0.023571
v -2.057375 -0.079760 2.414081
v -3.224637 -0.075712 2.414082
v -2.057376 -0.079761 -0.023571
v -3.224637 -0.075712 -0.023571
v -0.890114 -0.083809 2.414081
vn 0.3345 -0.9333 0.1309
vn 0.1607 -0.9870 -0.0000
vn -0.1607 -0.9870 -0.0000
vn -0.2089 -0.5828 -0.7853
vn -0.3345 -0.9333 0.1309
vn 0.2089 -0.5828 -0.7853
vn 1.0000 -0.0000 -0.0000
vn -0.0000 -0.0000 -1.0000
vn -1.0000 -0.0000 -0.0000
vn -0.0000 -0.0000 1.0000
vn 0.3424 0.9396 -0.0000
vn -0.3424 0.9396 -0.0000
vt 0.922322 0.837816
vt 0.956554 0.825446
vt 0.958586 0.825116
vt 0.922322 0.838014
vt 0.956554 0.825446
vt 0.888090 0.825446
vt 0.888090 0.825446
vt 0.886057 0.825116
vt 0.886057 0.827172
vt 0.922322 0.840388
vt 0.958586 0.827172
vt 0.382316 0.676544
vt 0.348084 0.676425
vt 0.348084 0.706868
vt 0.382316 0.719238
vt 0.416548 0.676663
vt 0.416548 0.706868
s 0
usemtl PALETTE.007
f 77/50/37 89/53/37 88/52/37 76/51/37
f 76/51/38 88/52/38 87/52/38 75/54/38
f 74/55/39 86/57/39 79/57/39 73/56/39
f 78/50/40 90/53/40 86/57/40 74/55/40
f 73/56/41 79/57/41 89/53/41 77/50/41
f 75/54/42 87/52/42 90/53/42 78/50/42
f 79/57/43 86/57/43 81/58/43 80/58/43
f 90/53/44 87/52/44 83/60/44 82/59/44
f 87/52/45 88/52/45 84/60/45 83/60/45
f 89/53/46 79/57/46 80/58/46 85/59/46
f 82/59/47 85/59/47 80/58/47 81/58/47
f 83/60/48 84/60/48 85/59/48 82/59/48
f 88/52/46 89/53/46 85/59/46 84/60/46
f 86/57/44 90/53/44 82/59/44 81/58/44
f 94/61/44 78/64/44 74/63/44 91/62/44
f 91/62/43 74/63/43 73/63/43 96/62/43
f 92/61/46 77/64/46 76/66/46 93/65/46
f 96/62/46 73/63/46 77/64/46 92/61/46
f 93/65/45 76/66/45 75/66/45 95/65/45
f 95/65/44 75/66/44 78/64/44 94/61/44
o Cube.040
v -0.445996 2.170660 -0.020398
v -0.445995 2.170660 2.417254
v 1.283881 2.170660 2.417253
v 1.283880 2.170660 -0.020399
v 0.418942 2.544473 -0.020399
v 0.418943 2.544473 2.417253
v -0.497347 2.156770 -0.023557
v -0.497347 2.243123 -0.023557
v -0.497346 2.243123 2.489615
v 0.418943 2.652437 2.489615
v 1.335232 2.243123 2.489615
v 1.335231 2.243123 -0.023558
v 0.418942 2.652437 -0.023558
v -0.497346 2.156770 2.489615
v 1.335232 2.156770 2.489615
v 1.335231 2.156770 -0.023558
v 0.418942 2.552777 -0.023558
v 0.418943 2.552777 2.489615
v 0.418943 -0.075788 2.417253
v 1.283881 -0.078788 2.417253
v -0.445996 -0.072789 -0.020398
v -0.445995 -0.072788 2.417254
v 0.418942 -0.075788 -0.020399
v 1.283880 -0.078788 -0.020399
vn -0.1519 -0.3514 -0.9238
vn -0.2611 -0.9653 -0.0000
vn 0.2611 -0.9653 -0.0000
vn 0.3945 -0.9129 0.1048
vn 0.1519 -0.3514 -0.9238
vn -0.3945 -0.9129 0.1048
vn -1.0000 -0.0000 -0.0000
vn -0.0000 -0.0000 1.0000
vn 1.0000 -0.0000 -0.0000
vn -0.0000 -0.0000 -1.0000
vn -0.4079 0.9130 -0.0000
vn 0.4079 0.9130 -0.0000
vt 0.926072 0.847968
vt 0.906642 0.839570
vt 0.905488 0.839258
vt 0.926072 0.848155
vt 0.945503 0.839570
vt 0.946656 0.839258
vt 0.946656 0.841198
vt 0.926072 0.850393
vt 0.905488 0.841198
vt 0.938001 0.552863
vt 0.918570 0.552796
vt 0.918570 0.611659
vt 0.938001 0.603261
vt 0.899140 0.552729
vt 0.899140 0.603261
vt 0.938001 0.552864
s 0
usemtl PALETTE
f 101/67/49 113/70/49 112/69/49 100/68/49
f 100/68/50 112/69/50 111/69/50 99/68/50
f 98/71/51 110/72/51 103/72/51 97/71/51
f 102/67/52 114/70/52 110/72/52 98/71/52
f 97/71/53 103/72/53 113/70/53 101/67/53
f 99/68/54 111/69/54 114/70/54 102/67/54
f 103/72/55 110/72/55 105/73/55 104/73/55
f 114/70/56 111/69/56 107/75/56 106/74/56
f 111/69/57 112/69/57 108/75/57 107/75/57
f 113/70/58 103/72/58 104/73/58 109/74/58
f 106/74/59 109/74/59 104/73/59 105/73/59
f 107/75/60 108/75/60 109/74/60 106/74/60
f 112/69/58 113/70/58 109/74/58 108/75/58
f 110/72/56 114/70/56 106/74/56 105/73/56
f 117/76/58 97/79/58 101/78/58 119/77/58
f 120/80/57 100/81/57 99/81/57 116/80/57
f 116/80/56 99/81/56 102/78/56 115/77/56
f 115/77/56 102/78/56 98/79/56 118/82/56
f 118/82/55 98/79/55 97/79/55 117/76/55
f 119/77/58 101/78/58 100/81/58 120/80/58
o Cube.041
v 1.292417 2.170660 -0.018465
v 1.292417 2.170660 2.419188
v 3.022293 2.170660 2.419187
v 3.022292 2.170660 -0.018465
v 2.157354 2.544473 -0.018465
v 2.157355 2.544473 2.419187
v 1.241065 2.156770 -0.021624
v 1.241065 2.243123 -0.021624
v 1.241066 2.243123 2.491549
v 2.157355 2.652437 2.491549
v 3.073644 2.243123 2.491548
v 3.073643 2.243123 -0.021624
v 2.157354 2.652437 -0.021624
v 1.241066 2.156770 2.491549
v 3.073644 2.156770 2.491548
v 3.073643 2.156770 -0.021624
v 2.157354 2.552777 -0.021624
v 2.157355 2.552777 2.491549
v 2.157355 -0.075788 2.419187
v 3.022293 -0.078788 2.419187
v 1.292417 -0.072789 -0.018465
v 1.292417 -0.072788 2.419188
v 2.157354 -0.075788 -0.018465
v 3.022292 -0.078788 -0.018465
vn -0.1519 -0.3514 -0.9238
vn -0.2611 -0.9653 -0.0000
vn 0.2611 -0.9653 -0.0000
vn 0.3945 -0.9129 0.1048
vn 0.1519 -0.3514 -0.9238
vn -0.3945 -0.9129 0.1048
vn -1.0000 -0.0000 -0.0000
vn -0.0000 -0.0000 1.0000
vn 1.0000 -0.0000 -0.0000
vn -0.0000 -0.0000 -1.0000
vn -0.4079 0.9130 -0.0000
vn 0.4079 0.9130 -0.0000
vt 0.926072 0.847968
vt 0.906642 0.839570
vt 0.905488 0.839258
vt 0.926072 0.848155
vt 0.945503 0.839570
vt 0.946656 0.839258
vt 0.946656 0.841198
vt 0.926072 0.850393
vt 0.905488 0.841198
vt 0.812765 0.425265
vt 0.793334 0.425197
vt 0.793334 0.484060
vt 0.812765 0.475663
vt 0.773904 0.425130
vt 0.773904 0.475663
vt 0.812765 0.425265
s 0
usemtl PALETTE.006
f 125/83/61 137/86/61 136/85/61 124/84/61
f 124/84/62 136/85/62 135/85/62 123/84/62
f 122/87/63 134/88/63 127/88/63 121/87/63
f 126/83/64 138/86/64 134/88/64 122/87/64
f 121/87/65 127/88/65 137/86/65 125/83/65
f 123/84/66 135/85/66 138/86/66 126/83/66
f 127/88/67 134/88/67 129/89/67 128/89/67
f 138/86/68 135/85/68 131/91/68 130/90/68
f 135/85/69 136/85/69 132/91/69 131/91/69
f 137/86/70 127/88/70 128/89/70 133/90/70
f 130/90/71 133/90/71 128/89/71 129/89/71
f 131/91/72 132/91/72 133/90/72 130/90/72
f 136/85/70 137/86/70 133/90/70 132/91/70
f 134/88/68 138/86/68 130/90/68 129/89/68
f 141/92/70 121/95/70 125/94/70 143/93/70
f 144/96/69 124/97/69 123/97/69 140/96/69
f 140/96/68 123/97/68 126/94/68 139/93/68
f 139/93/68 126/94/68 122/95/68 142/98/68
f 142/98/67 122/95/67 121/95/67 141/92/67
f 143/93/70 125/94/70 124/97/70 144/96/70
