# Blender 4.3.0
# www.blender.org
mtllib batiments 1'2.mtl
o Cube.012
v 1.520743 2.170660 0.054467
v 1.520744 2.170660 -2.383185
v 3.250619 2.170660 -2.383184
v 3.250618 2.170660 0.054468
v 2.385680 2.544473 0.054468
v 2.385681 2.544473 -2.383184
v 1.469392 2.156770 0.057626
v 1.469392 2.243123 0.057626
v 1.469393 2.243123 -2.455546
v 2.385681 2.652437 -2.455546
v 3.301970 2.243123 -2.455545
v 3.301970 2.243123 0.057627
v 2.385680 2.652437 0.057627
v 1.469393 2.156770 -2.455546
v 3.301970 2.156770 -2.455545
v 3.301970 2.156770 0.057627
v 2.385680 2.552777 0.057627
v 2.385681 2.552777 -2.455546
v 2.385681 -0.075788 -2.383184
v 3.250619 -0.078788 -2.383184
v 1.520743 -0.072789 0.054467
v 1.520744 -0.072788 -2.383185
v 2.385680 -0.075788 0.054468
v 3.250618 -0.078788 0.054468
vn -0.1519 -0.3514 0.9238
vn -0.2611 -0.9653 -0.0000
vn 0.2611 -0.9653 -0.0000
vn 0.3945 -0.9129 -0.1048
vn 0.1519 -0.3514 0.9238
vn -0.3945 -0.9129 -0.1048
vn -1.0000 -0.0000 -0.0000
vn -0.0000 -0.0000 -1.0000
vn 1.0000 -0.0000 -0.0000
vn -0.0000 -0.0000 1.0000
vn -0.4079 0.9130 -0.0000
vn 0.4079 0.9130 -0.0000
vt 0.926072 0.847968
vt 0.906642 0.839570
vt 0.905488 0.839258
vt 0.926072 0.848155
vt 0.945503 0.839570
vt 0.946656 0.839258
vt 0.946656 0.841198
vt 0.926072 0.850393
vt 0.905488 0.841198
vt 0.938001 0.552863
vt 0.918570 0.552796
vt 0.918570 0.611659
vt 0.938001 0.603261
vt 0.899140 0.552729
vt 0.899140 0.603261
vt 0.938001 0.552864
s 0
usemtl PALETTE
f 5/1/1 4/2/1 16/3/1 17/4/1
f 4/2/2 3/2/2 15/3/2 16/3/2
f 2/5/3 1/5/3 7/6/3 14/6/3
f 6/1/4 2/5/4 14/6/4 18/4/4
f 1/5/5 5/1/5 17/4/5 7/6/5
f 3/2/6 6/1/6 18/4/6 15/3/6
f 7/6/7 8/7/7 9/7/7 14/6/7
f 18/4/8 10/8/8 11/9/8 15/3/8
f 15/3/9 11/9/9 12/9/9 16/3/9
f 17/4/10 13/8/10 8/7/10 7/6/10
f 10/8/11 9/7/11 8/7/11 13/8/11
f 11/9/12 10/8/12 13/8/12 12/9/12
f 16/3/10 12/9/10 13/8/10 17/4/10
f 14/6/8 9/7/8 10/8/8 18/4/8
f 21/10/10 23/11/10 5/12/10 1/13/10
f 24/14/9 20/14/9 3/15/9 4/15/9
f 20/14/8 19/11/8 6/12/8 3/15/8
f 19/11/8 22/16/8 2/13/8 6/12/8
f 22/16/7 21/10/7 1/13/7 2/13/7
f 23/11/10 24/14/10 4/15/10 5/12/10
o Cube.013
v -1.366994 2.170660 0.054467
v -1.366993 2.170660 -2.383185
v 0.362882 2.170660 -2.383184
v 0.362881 2.170660 0.054468
v -0.502057 2.544473 0.054468
v -0.502056 2.544473 -2.383184
v -1.418345 2.156770 0.057626
v -1.418345 2.243123 0.057626
v -1.418344 2.243123 -2.455546
v -0.502056 2.652437 -2.455546
v 0.414233 2.243123 -2.455545
v 0.414232 2.243123 0.057627
v -0.502057 2.652437 0.057627
v -1.418344 2.156770 -2.455546
v 0.414233 2.156770 -2.455545
v 0.414232 2.156770 0.057627
v -0.502057 2.552777 0.057627
v -0.502056 2.552777 -2.455546
v -0.502056 -0.075788 -2.383184
v 0.362882 -0.078788 -2.383184
v -1.366994 -0.072789 0.054467
v -1.366993 -0.072788 -2.383185
v -0.502057 -0.075788 0.054468
v 0.362881 -0.078788 0.054468
vn -0.1519 -0.3514 0.9238
vn -0.2611 -0.9653 -0.0000
vn 0.2611 -0.9653 -0.0000
vn 0.3945 -0.9129 -0.1048
vn 0.1519 -0.3514 0.9238
vn -0.3945 -0.9129 -0.1048
vn -1.0000 -0.0000 -0.0000
vn -0.0000 -0.0000 -1.0000
vn 1.0000 -0.0000 -0.0000
vn -0.0000 -0.0000 1.0000
vn -0.4079 0.9130 -0.0000
vn 0.4079 0.9130 -0.0000
vt 0.926072 0.847968
vt 0.906642 0.839570
vt 0.905488 0.839258
vt 0.926072 0.848155
vt 0.945503 0.839570
vt 0.946656 0.839258
vt 0.946656 0.841198
vt 0.926072 0.850393
vt 0.905488 0.841198
vt 0.389798 0.675736
vt 0.370368 0.675669
vt 0.370368 0.734532
vt 0.389798 0.726134
vt 0.350937 0.675602
vt 0.350937 0.726134
vt 0.389798 0.675736
s 0
usemtl PALETTE.005
f 29/17/13 28/18/13 40/19/13 41/20/13
f 28/18/14 27/18/14 39/19/14 40/19/14
f 26/21/15 25/21/15 31/22/15 38/22/15
f 30/17/16 26/21/16 38/22/16 42/20/16
f 25/21/17 29/17/17 41/20/17 31/22/17
f 27/18/18 30/17/18 42/20/18 39/19/18
f 31/22/19 32/23/19 33/23/19 38/22/19
f 42/20/20 34/24/20 35/25/20 39/19/20
f 39/19/21 35/25/21 36/25/21 40/19/21
f 41/20/22 37/24/22 32/23/22 31/22/22
f 34/24/23 33/23/23 32/23/23 37/24/23
f 35/25/24 34/24/24 37/24/24 36/25/24
f 40/19/22 36/25/22 37/24/22 41/20/22
f 38/22/20 33/23/20 34/24/20 42/20/20
f 45/26/22 47/27/22 29/28/22 25/29/22
f 48/30/21 44/30/21 27/31/21 28/31/21
f 44/30/20 43/27/20 30/28/20 27/31/20
f 43/27/20 46/32/20 26/29/20 30/28/20
f 46/32/19 45/26/19 25/29/19 26/29/19
f 47/27/22 48/30/22 28/31/22 29/28/22
o Cube.014
v -3.149891 2.170660 0.042921
v -3.149890 2.170660 -2.394731
v -1.420015 2.170660 -2.394730
v -1.420016 2.170660 0.042922
v -2.284954 2.544473 0.042921
v -2.284953 2.544473 -2.394731
v -3.201243 2.156770 0.046080
v -3.201243 2.243123 0.046080
v -3.201242 2.243123 -2.467093
v -2.284953 2.652437 -2.467092
v -1.368664 2.243123 -2.467092
v -1.368665 2.243123 0.046081
v -2.284954 2.652437 0.046080
v -3.201242 2.156770 -2.467093
v -1.368664 2.156770 -2.467092
v -1.368665 2.156770 0.046081
v -2.284954 2.552777 0.046080
v -2.284953 2.552777 -2.467092
v -2.284953 -0.075788 -2.394731
v -1.420015 -0.078788 -2.394730
v -3.149891 -0.072789 0.042921
v -3.149890 -0.072788 -2.394731
v -2.284954 -0.075788 0.042921
v -1.420016 -0.078788 0.042922
vn -0.1519 -0.3514 0.9238
vn -0.2611 -0.9653 -0.0000
vn 0.2611 -0.9653 -0.0000
vn 0.3945 -0.9129 -0.1048
vn 0.1519 -0.3514 0.9238
vn -0.3945 -0.9129 -0.1048
vn -1.0000 -0.0000 -0.0000
vn -0.0000 -0.0000 -1.0000
vn 1.0000 -0.0000 -0.0000
vn -0.0000 -0.0000 1.0000
vn -0.4079 0.9130 -0.0000
vn 0.4079 0.9130 -0.0000
vt 0.926072 0.847968
vt 0.906642 0.839570
vt 0.905488 0.839258
vt 0.926072 0.848155
vt 0.945503 0.839570
vt 0.946656 0.839258
vt 0.946656 0.841198
vt 0.926072 0.850393
vt 0.905488 0.841198
vt 0.812765 0.425265
vt 0.793334 0.425197
vt 0.793334 0.484060
vt 0.812765 0.475663
vt 0.773904 0.425130
vt 0.773904 0.475663
vt 0.812765 0.425265
s 0
usemtl PALETTE.006
f 53/33/25 52/34/25 64/35/25 65/36/25
f 52/34/26 51/34/26 63/35/26 64/35/26
f 50/37/27 49/37/27 55/38/27 62/38/27
f 54/33/28 50/37/28 62/38/28 66/36/28
f 49/37/29 53/33/29 65/36/29 55/38/29
f 51/34/30 54/33/30 66/36/30 63/35/30
f 55/38/31 56/39/31 57/39/31 62/38/31
f 66/36/32 58/40/32 59/41/32 63/35/32
f 63/35/33 59/41/33 60/41/33 64/35/33
f 65/36/34 61/40/34 56/39/34 55/38/34
f 58/40/35 57/39/35 56/39/35 61/40/35
f 59/41/36 58/40/36 61/40/36 60/41/36
f 64/35/34 60/41/34 61/40/34 65/36/34
f 62/38/32 57/39/32 58/40/32 66/36/32
f 69/42/34 71/43/34 53/44/34 49/45/34
f 72/46/33 68/46/33 51/47/33 52/47/33
f 68/46/32 67/43/32 54/44/32 51/47/32
f 67/43/32 70/48/32 50/45/32 54/44/32
f 70/48/31 69/42/31 49/45/31 50/45/31
f 71/43/34 72/46/34 52/47/34 53/44/34
o Cube.015
v -0.316645 2.170660 2.550010
v -0.316644 2.170660 0.112358
v 1.413231 2.170660 0.112358
v 1.413231 2.170660 2.550010
v 0.548293 2.544473 2.550010
v 0.548294 2.544473 0.112358
v -0.367996 2.156770 2.553169
v -0.367996 2.243123 2.553169
v -0.367995 2.243123 0.039996
v 0.548294 2.652437 0.039997
v 1.464583 2.243123 0.039997
v 1.464582 2.243123 2.553169
v 0.548293 2.652437 2.553169
v -0.367995 2.156770 0.039996
v 1.464583 2.156770 0.039997
v 1.464582 2.156770 2.553169
v 0.548293 2.552777 2.553169
v 0.548294 2.552777 0.039997
v 0.548294 -0.075788 0.112358
v 1.413231 -0.078788 0.112358
v -0.316645 -0.072789 2.550010
v -0.316644 -0.072788 0.112358
v 0.548293 -0.075788 2.550010
v 1.413231 -0.078788 2.550010
vn -0.1519 -0.3514 0.9238
vn -0.2611 -0.9653 -0.0000
vn 0.2611 -0.9653 -0.0000
vn 0.3945 -0.9129 -0.1048
vn 0.1519 -0.3514 0.9238
vn -0.3945 -0.9129 -0.1048
vn -1.0000 -0.0000 -0.0000
vn -0.0000 -0.0000 -1.0000
vn 1.0000 -0.0000 -0.0000
vn -0.0000 -0.0000 1.0000
vn -0.4079 0.9130 -0.0000
vn 0.4079 0.9130 -0.0000
vt 0.926072 0.847968
vt 0.906642 0.839570
vt 0.905488 0.839258
vt 0.926072 0.848155
vt 0.945503 0.839570
vt 0.946656 0.839258
vt 0.946656 0.841198
vt 0.926072 0.850393
vt 0.905488 0.841198
vt 0.812765 0.425265
vt 0.793334 0.425197
vt 0.793334 0.484060
vt 0.812765 0.475663
vt 0.773904 0.425130
vt 0.773904 0.475663
vt 0.812765 0.425265
s 0
usemtl PALETTE.006
f 77/49/37 76/50/37 88/51/37 89/52/37
f 76/50/38 75/50/38 87/51/38 88/51/38
f 74/53/39 73/53/39 79/54/39 86/54/39
f 78/49/40 74/53/40 86/54/40 90/52/40
f 73/53/41 77/49/41 89/52/41 79/54/41
f 75/50/42 78/49/42 90/52/42 87/51/42
f 79/54/43 80/55/43 81/55/43 86/54/43
f 90/52/44 82/56/44 83/57/44 87/51/44
f 87/51/45 83/57/45 84/57/45 88/51/45
f 89/52/46 85/56/46 80/55/46 79/54/46
f 82/56/47 81/55/47 80/55/47 85/56/47
f 83/57/48 82/56/48 85/56/48 84/57/48
f 88/51/46 84/57/46 85/56/46 89/52/46
f 86/54/44 81/55/44 82/56/44 90/52/44
f 93/58/46 95/59/46 77/60/46 73/61/46
f 96/62/45 92/62/45 75/63/45 76/63/45
f 92/62/44 91/59/44 78/60/44 75/63/44
f 91/59/44 94/64/44 74/61/44 78/60/44
f 94/64/43 93/58/43 73/61/43 74/61/43
f 95/59/46 96/62/46 76/63/46 77/60/46
o Cube.016
v 1.532593 2.170660 2.550010
v 1.532594 2.170660 0.112358
v 3.262470 2.170660 0.112358
v 3.262469 2.170660 2.550010
v 2.397531 2.544473 2.550010
v 2.397532 2.544473 0.112358
v 1.481242 2.156770 2.553169
v 1.481242 2.243123 2.553169
v 1.481243 2.243123 0.039996
v 2.397532 2.652437 0.039997
v 3.313821 2.243123 0.039997
v 3.313820 2.243123 2.553169
v 2.397531 2.652437 2.553169
v 1.481243 2.156770 0.039996
v 3.313821 2.156770 0.039997
v 3.313820 2.156770 2.553169
v 2.397531 2.552777 2.553169
v 2.397532 2.552777 0.039997
v 2.397532 -0.075788 0.112358
v 3.262470 -0.078788 0.112358
v 1.532593 -0.072789 2.550010
v 1.532594 -0.072788 0.112358
v 2.397531 -0.075788 2.550010
v 3.262469 -0.078788 2.550010
vn -0.1519 -0.3514 0.9238
vn -0.2611 -0.9653 -0.0000
vn 0.2611 -0.9653 -0.0000
vn 0.3945 -0.9129 -0.1048
vn 0.1519 -0.3514 0.9238
vn -0.3945 -0.9129 -0.1048
vn -1.0000 -0.0000 -0.0000
vn -0.0000 -0.0000 -1.0000
vn 1.0000 -0.0000 -0.0000
vn -0.0000 -0.0000 1.0000
vn -0.4079 0.9130 -0.0000
vn 0.4079 0.9130 -0.0000
vt 0.926072 0.847968
vt 0.906642 0.839570
vt 0.905488 0.839258
vt 0.926072 0.848155
vt 0.945503 0.839570
vt 0.946656 0.839258
vt 0.946656 0.841198
vt 0.926072 0.850393
vt 0.905488 0.841198
vt 0.389798 0.675736
vt 0.370368 0.675669
vt 0.370368 0.734532
vt 0.389798 0.726134
vt 0.350937 0.675602
vt 0.350937 0.726134
vt 0.389798 0.675736
s 0
usemtl PALETTE.005
f 101/65/49 100/66/49 112/67/49 113/68/49
f 100/66/50 99/66/50 111/67/50 112/67/50
f 98/69/51 97/69/51 103/70/51 110/70/51
f 102/65/52 98/69/52 110/70/52 114/68/52
f 97/69/53 101/65/53 113/68/53 103/70/53
f 99/66/54 102/65/54 114/68/54 111/67/54
f 103/70/55 104/71/55 105/71/55 110/70/55
f 114/68/56 106/72/56 107/73/56 111/67/56
f 111/67/57 107/73/57 108/73/57 112/67/57
f 113/68/58 109/72/58 104/71/58 103/70/58
f 106/72/59 105/71/59 104/71/59 109/72/59
f 107/73/60 106/72/60 109/72/60 108/73/60
f 112/67/58 108/73/58 109/72/58 113/68/58
f 110/70/56 105/71/56 106/72/56 114/68/56
f 117/74/58 119/75/58 101/76/58 97/77/58
f 120/78/57 116/78/57 99/79/57 100/79/57
f 116/78/56 115/75/56 102/76/56 99/79/56
f 115/75/56 118/80/56 98/77/56 102/76/56
f 118/80/55 117/74/55 97/77/55 98/77/55
f 119/75/58 120/78/58 100/79/58 101/76/58
o Cube.017
v -3.149016 2.170660 2.550010
v -3.149015 2.170660 0.112358
v -1.419140 2.170660 0.112358
v -1.419141 2.170660 2.550010
v -2.284079 2.544473 2.550010
v -2.284078 2.544473 0.112358
v -3.200368 2.156770 2.553169
v -3.200368 2.243123 2.553169
v -3.200367 2.243123 0.039996
v -2.284078 2.652437 0.039997
v -1.367789 2.243123 0.039997
v -1.367790 2.243123 2.553169
v -2.284079 2.652437 2.553169
v -3.200367 2.156770 0.039996
v -1.367789 2.156770 0.039997
v -1.367790 2.156770 2.553169
v -2.284079 2.552777 2.553169
v -2.284078 2.552777 0.039997
v -2.284078 -0.075788 0.112358
v -1.419140 -0.078788 0.112358
v -3.149016 -0.072789 2.550010
v -3.149015 -0.072788 0.112358
v -2.284079 -0.075788 2.550010
v -1.419141 -0.078788 2.550010
vn -0.1519 -0.3514 0.9238
vn -0.2611 -0.9653 -0.0000
vn 0.2611 -0.9653 -0.0000
vn 0.3945 -0.9129 -0.1048
vn 0.1519 -0.3514 0.9238
vn -0.3945 -0.9129 -0.1048
vn -1.0000 -0.0000 -0.0000
vn -0.0000 -0.0000 -1.0000
vn 1.0000 -0.0000 -0.0000
vn -0.0000 -0.0000 1.0000
vn -0.4079 0.9130 -0.0000
vn 0.4079 0.9130 -0.0000
vt 0.926072 0.847968
vt 0.906642 0.839570
vt 0.905488 0.839258
vt 0.926072 0.848155
vt 0.945503 0.839570
vt 0.946656 0.839258
vt 0.946656 0.841198
vt 0.926072 0.850393
vt 0.905488 0.841198
vt 0.938001 0.552863
vt 0.918570 0.552796
vt 0.918570 0.611659
vt 0.938001 0.603261
vt 0.899140 0.552729
vt 0.899140 0.603261
vt 0.938001 0.552864
s 0
usemtl PALETTE
f 125/81/61 124/82/61 136/83/61 137/84/61
f 124/82/62 123/82/62 135/83/62 136/83/62
f 122/85/63 121/85/63 127/86/63 134/86/63
f 126/81/64 122/85/64 134/86/64 138/84/64
f 121/85/65 125/81/65 137/84/65 127/86/65
f 123/82/66 126/81/66 138/84/66 135/83/66
f 127/86/67 128/87/67 129/87/67 134/86/67
f 138/84/68 130/88/68 131/89/68 135/83/68
f 135/83/69 131/89/69 132/89/69 136/83/69
f 137/84/70 133/88/70 128/87/70 127/86/70
f 130/88/71 129/87/71 128/87/71 133/88/71
f 131/89/72 130/88/72 133/88/72 132/89/72
f 136/83/70 132/89/70 133/88/70 137/84/70
f 134/86/68 129/87/68 130/88/68 138/84/68
f 141/90/70 143/91/70 125/92/70 121/93/70
f 144/94/69 140/94/69 123/95/69 124/95/69
f 140/94/68 139/91/68 126/92/68 123/95/68
f 139/91/68 142/96/68 122/93/68 126/92/68
f 142/96/67 141/90/67 121/93/67 122/93/67
f 143/91/70 144/94/70 124/95/70 125/92/70
