# Blender 4.3.0
# www.blender.org
mtllib 3way.mtl
o sol.001
v 3.500000 0.000000 10.499999
v 10.500000 0.000000 10.499999
v 3.500000 0.000000 3.499999
v 10.500000 0.000000 3.499999
v 4.723996 0.000000 10.499999
v 9.276005 0.000000 10.499999
v 9.276005 0.000000 3.499999
v 4.723996 0.000000 3.499999
v 3.500000 0.000000 4.725039
v 3.500000 0.000000 9.274960
v 10.500000 0.000000 9.274960
v 10.500000 0.000000 4.725039
v 4.723996 0.000000 9.274960
v 4.723996 0.000000 4.725039
v 9.276005 0.000000 9.274960
v 9.276005 0.000000 4.725039
v 9.276005 -0.098551 3.499999
v 4.723996 -0.098551 3.499999
v 4.723996 -0.098551 4.725039
v 9.276005 -0.098551 4.725039
v 3.500000 -0.098551 4.725039
v 3.500000 -0.098551 9.274960
v 10.500000 -0.098551 9.274960
v 10.500000 -0.098551 4.725039
v 4.723996 -0.098551 9.274960
v 9.276005 -0.098551 9.274960
vn -0.0000 1.0000 -0.0000
vn -0.0000 -0.0000 -1.0000
vn -0.0000 -0.0000 1.0000
vn 1.0000 -0.0000 -0.0000
vn -1.0000 -0.0000 -0.0000
vt 0.786886 0.941557
vt 0.777631 0.941557
vt 0.777631 0.936698
vt 0.786886 0.936698
vt 0.805398 0.941557
vt 0.796142 0.941557
vt 0.796142 0.936698
vt 0.805398 0.936698
vt 0.796142 0.964465
vt 0.786886 0.964465
vt 0.786886 0.959606
vt 0.796142 0.959606
vt 0.805398 0.959606
vt 0.805398 0.964465
vt 0.777631 0.964465
vt 0.777631 0.959606
vt 0.942021 0.932626
vt 0.932765 0.932626
vt 0.932765 0.927767
vt 0.942021 0.927767
vt 0.942021 0.950674
vt 0.932765 0.950674
vt 0.951277 0.950674
vt 0.951277 0.932626
vt 0.923509 0.950674
vt 0.923509 0.932626
s 0
usemtl PALETTE.006
f 16/1/1 12/2/1 4/3/1 7/4/1
f 9/5/1 14/6/1 8/7/1 3/8/1
f 5/9/1 6/10/1 15/11/1 13/12/1
f 10/13/2 13/12/2 25/12/2 22/13/2
f 1/14/1 5/9/1 13/12/1 10/13/1
f 6/10/1 2/15/1 11/16/1 15/11/1
f 12/2/3 16/1/3 20/1/3 24/2/3
f 19/17/1 20/18/1 17/19/1 18/20/1
f 25/21/1 26/22/1 20/18/1 19/17/1
f 22/23/1 25/21/1 19/17/1 21/24/1
f 26/22/1 23/25/1 24/26/1 20/18/1
f 14/6/3 9/5/3 21/5/3 19/6/3
f 13/12/2 15/11/2 26/11/2 25/12/2
f 8/7/4 14/6/4 19/6/4 18/7/4
f 15/11/2 11/16/2 23/16/2 26/11/2
f 16/1/5 7/4/5 17/4/5 20/1/5
